{"asset":{"generator":"3D Builder","version":"2.0"},"scene":0,"scenes":[{"nodes":[0,1]}],"nodes":[{"mesh":0,"matrix":[1,0,0,0,0,-1.1920928955078125E-7,-0.99999988079071045,0,0,0.99999988079071045,-1.1920928955078125E-7,0,4.2148590182478074E-6,2.9801874745771784E-8,-3.7303918816178339E-6,1]},{"mesh":1,"matrix":[1,0,0,0,0,-1.1920928955078125E-7,-0.99999988079071045,0,0,0.99999988079071045,-1.1920928955078125E-7,0,4.2148590182478074E-6,2.9801874745771784E-8,-3.7303918816178339E-6,1]}],"meshes":[{"primitives":[{"attributes":{"POSITION":0,"COLOR_0":1},"mode":4,"indices":2}]},{"primitives":[{"attributes":{"POSITION":3,"COLOR_0":4},"mode":4,"indices":5}]}],"accessors":[{"bufferView":0,"byteOffset":0,"count":1625,"componentType":5126,"type":"VEC3","min":[-0.47840616106987,-0.38902431726455688,0.32570987939834595],"max":[0.50200515985488892,0.53172051906585693,1.7239069938659668]},{"bufferView":1,"byteOffset":0,"count":1625,"componentType":5121,"type":"VEC4","normalized":true},{"bufferView":2,"byteOffset":0,"count":9360,"componentType":5125,"type":"SCALAR"},{"bufferView":3,"byteOffset":0,"count":249,"componentType":5126,"type":"VEC3","min":[-0.87499988079071045,-0.75420546531677246,-2.9802322387695313E-8],"max":[0.87499141693115234,0.75419801473617554,0.323172390460968]},{"bufferView":4,"byteOffset":0,"count":249,"componentType":5121,"type":"VEC4","normalized":true},{"bufferView":5,"byteOffset":0,"count":1482,"componentType":5125,"type":"SCALAR"}],"bufferViews":[{"buffer":0,"byteOffset":0,"byteLength":19500,"byteStride":12,"target":34962},{"buffer":0,"byteOffset":19500,"byteLength":6500,"byteStride":4,"target":34962},{"buffer":0,"byteOffset":26000,"byteLength":37440,"target":34963},{"buffer":0,"byteOffset":63440,"byteLength":2988,"byteStride":12,"target":34962},{"buffer":0,"byteOffset":66428,"byteLength":996,"byteStride":4,"target":34962},{"buffer":0,"byteOffset":67424,"byteLength":5928,"target":34963}],"buffers":[{"byteLength":73352,"uri":"ping.bin"}]}